solid OpenSCAD_Model
  facet normal 1 -0 0
    outer loop
      vertex 234 60 15
      vertex 234 75 0
      vertex 234 75 15
    endloop
  endfacet
  facet normal 1 0 0
    outer loop
      vertex 234 75 0
      vertex 234 60 15
      vertex 234 60 0
    endloop
  endfacet
  facet normal -0 0 1
    outer loop
      vertex 0 75 15
      vertex 234 60 15
      vertex 234 75 15
    endloop
  endfacet
  facet normal 0 0 1
    outer loop
      vertex 234 60 15
      vertex 0 75 15
      vertex 0 60 15
    endloop
  endfacet
  facet normal 0 0 -1
    outer loop
      vertex 231 60 0
      vertex 234 75 0
      vertex 234 60 0
    endloop
  endfacet
  facet normal -0 0 -1
    outer loop
      vertex 234 75 0
      vertex 231 60 0
      vertex 231 75 0
    endloop
  endfacet
  facet normal 0 0 -1
    outer loop
      vertex 0 60 0
      vertex 3 75 0
      vertex 3 60 0
    endloop
  endfacet
  facet normal -0 0 -1
    outer loop
      vertex 3 75 0
      vertex 0 60 0
      vertex 0 75 0
    endloop
  endfacet
  facet normal -1 0 0
    outer loop
      vertex 0 60 0
      vertex 0 75 15
      vertex 0 75 0
    endloop
  endfacet
  facet normal -1 -0 0
    outer loop
      vertex 0 75 15
      vertex 0 60 0
      vertex 0 60 15
    endloop
  endfacet
  facet normal 0 1 0
    outer loop
      vertex 234 75 15
      vertex 231 75 12
      vertex 0 75 15
    endloop
  endfacet
  facet normal 0 1 -0
    outer loop
      vertex 234 75 0
      vertex 231 75 12
      vertex 234 75 15
    endloop
  endfacet
  facet normal 0 1 0
    outer loop
      vertex 231 75 12
      vertex 234 75 0
      vertex 231 75 0
    endloop
  endfacet
  facet normal 0 1 -0
    outer loop
      vertex 3 75 12
      vertex 0 75 15
      vertex 231 75 12
    endloop
  endfacet
  facet normal 0 1 0
    outer loop
      vertex 0 75 0
      vertex 3 75 12
      vertex 3 75 0
    endloop
  endfacet
  facet normal 0 1 0
    outer loop
      vertex 3 75 12
      vertex 0 75 0
      vertex 0 75 15
    endloop
  endfacet
  facet normal 0 -1 0
    outer loop
      vertex 0 60 15
      vertex 3 60 12
      vertex 234 60 15
    endloop
  endfacet
  facet normal 0 -1 0
    outer loop
      vertex 0 60 0
      vertex 3 60 12
      vertex 0 60 15
    endloop
  endfacet
  facet normal 0 -1 -0
    outer loop
      vertex 3 60 12
      vertex 0 60 0
      vertex 3 60 0
    endloop
  endfacet
  facet normal 0 -1 0
    outer loop
      vertex 231 60 12
      vertex 234 60 15
      vertex 3 60 12
    endloop
  endfacet
  facet normal 0 -1 0
    outer loop
      vertex 234 60 0
      vertex 231 60 12
      vertex 231 60 0
    endloop
  endfacet
  facet normal 0 -1 0
    outer loop
      vertex 231 60 12
      vertex 234 60 0
      vertex 234 60 15
    endloop
  endfacet
  facet normal -1 0 0
    outer loop
      vertex 231 60 0
      vertex 231 75 12
      vertex 231 75 0
    endloop
  endfacet
  facet normal -1 -0 0
    outer loop
      vertex 231 75 12
      vertex 231 60 0
      vertex 231 60 12
    endloop
  endfacet
  facet normal 0 0 -1
    outer loop
      vertex 3 60 12
      vertex 231 75 12
      vertex 231 60 12
    endloop
  endfacet
  facet normal -0 0 -1
    outer loop
      vertex 231 75 12
      vertex 3 60 12
      vertex 3 75 12
    endloop
  endfacet
  facet normal 1 -0 0
    outer loop
      vertex 3 60 12
      vertex 3 75 0
      vertex 3 75 12
    endloop
  endfacet
  facet normal 1 0 0
    outer loop
      vertex 3 75 0
      vertex 3 60 12
      vertex 3 60 0
    endloop
  endfacet
endsolid OpenSCAD_Model
