solid OpenSCAD_Model
  facet normal 1 0 0
    outer loop
      vertex 15 155 37
      vertex 15 152 34.5
      vertex 15 155 0
    endloop
  endfacet
  facet normal 1 0 0
    outer loop
      vertex 15 155 37
      vertex 15 3 34.5
      vertex 15 152 34.5
    endloop
  endfacet
  facet normal 1 -0 0
    outer loop
      vertex 15 0 37
      vertex 15 3 34.5
      vertex 15 155 37
    endloop
  endfacet
  facet normal 1 0 0
    outer loop
      vertex 15 0 0
      vertex 15 3 34.5
      vertex 15 0 37
    endloop
  endfacet
  facet normal 1 0 0
    outer loop
      vertex 15 3 34.5
      vertex 15 0 0
      vertex 15 3 0
    endloop
  endfacet
  facet normal 1 0 0
    outer loop
      vertex 15 155 0
      vertex 15 152 34.5
      vertex 15 152 0
    endloop
  endfacet
  facet normal -0 0 1
    outer loop
      vertex 0 155 37
      vertex 15 0 37
      vertex 15 155 37
    endloop
  endfacet
  facet normal 0 0 1
    outer loop
      vertex 15 0 37
      vertex 0 155 37
      vertex 0 0 37
    endloop
  endfacet
  facet normal 0 0 -1
    outer loop
      vertex 0 152 0
      vertex 15 155 0
      vertex 15 152 0
    endloop
  endfacet
  facet normal -0 0 -1
    outer loop
      vertex 15 155 0
      vertex 0 152 0
      vertex 0 155 0
    endloop
  endfacet
  facet normal 0 0 -1
    outer loop
      vertex 0 0 0
      vertex 15 3 0
      vertex 15 0 0
    endloop
  endfacet
  facet normal -0 0 -1
    outer loop
      vertex 15 3 0
      vertex 0 0 0
      vertex 0 3 0
    endloop
  endfacet
  facet normal -1 0 0
    outer loop
      vertex 0 3 0
      vertex 0 0 0
      vertex 0 3 34.5
    endloop
  endfacet
  facet normal -1 0 0
    outer loop
      vertex 0 152 34.5
      vertex 0 155 0
      vertex 0 152 0
    endloop
  endfacet
  facet normal -1 0 0
    outer loop
      vertex 0 155 0
      vertex 0 152 34.5
      vertex 0 155 37
    endloop
  endfacet
  facet normal -1 0 0
    outer loop
      vertex 0 3 34.5
      vertex 0 155 37
      vertex 0 152 34.5
    endloop
  endfacet
  facet normal -1 0 0
    outer loop
      vertex 0 3 34.5
      vertex 0 0 37
      vertex 0 155 37
    endloop
  endfacet
  facet normal -1 0 0
    outer loop
      vertex 0 0 37
      vertex 0 3 34.5
      vertex 0 0 0
    endloop
  endfacet
  facet normal 0 1 -0
    outer loop
      vertex 15 155 0
      vertex 0 155 37
      vertex 15 155 37
    endloop
  endfacet
  facet normal 0 1 0
    outer loop
      vertex 0 155 37
      vertex 15 155 0
      vertex 0 155 0
    endloop
  endfacet
  facet normal 0 -1 0
    outer loop
      vertex 0 0 0
      vertex 15 0 37
      vertex 0 0 37
    endloop
  endfacet
  facet normal 0 -1 -0
    outer loop
      vertex 15 0 37
      vertex 0 0 0
      vertex 15 0 0
    endloop
  endfacet
  facet normal 0 0 -1
    outer loop
      vertex 0 3 34.5
      vertex 15 152 34.5
      vertex 15 3 34.5
    endloop
  endfacet
  facet normal -0 0 -1
    outer loop
      vertex 15 152 34.5
      vertex 0 3 34.5
      vertex 0 152 34.5
    endloop
  endfacet
  facet normal 0 -1 0
    outer loop
      vertex 0 152 0
      vertex 15 152 34.5
      vertex 0 152 34.5
    endloop
  endfacet
  facet normal 0 -1 -0
    outer loop
      vertex 15 152 34.5
      vertex 0 152 0
      vertex 15 152 0
    endloop
  endfacet
  facet normal 0 1 -0
    outer loop
      vertex 15 3 0
      vertex 0 3 34.5
      vertex 15 3 34.5
    endloop
  endfacet
  facet normal 0 1 0
    outer loop
      vertex 0 3 34.5
      vertex 15 3 0
      vertex 0 3 0
    endloop
  endfacet
endsolid OpenSCAD_Model
